HIERARCHY
ROOT mixamorig:Hips
{
	OFFSET 0.000000 201.639420 0.000000
	CHANNELS 6 Xposition Yposition Zposition Xrotation Yrotation Zrotation
	JOINT mixamorig:Spine
	{
		OFFSET 0.006200 19.524994 -2.481800
		CHANNELS 3 Xrotation Yrotation Zrotation
		JOINT mixamorig:Spine1
		{
			OFFSET -0.000900 22.835007 -2.825400
			CHANNELS 3 Xrotation Yrotation Zrotation
			JOINT mixamorig:Spine2
			{
				OFFSET -0.020600 26.552490 -3.193300
				CHANNELS 3 Xrotation Yrotation Zrotation
				JOINT mixamorig:Neck
				{
					OFFSET -0.060000 30.701813 1.352200
					CHANNELS 3 Xrotation Yrotation Zrotation
					JOINT mixamorig:Head
					{
						OFFSET -0.087200 22.547607 3.670900
						CHANNELS 3 Xrotation Yrotation Zrotation
						JOINT mixamorig:HeadTop_End
						{
							OFFSET -0.830600 40.355194 7.893500
							CHANNELS 3 Xrotation Yrotation Zrotation
							End Site
							{
								OFFSET 0.000000 30.592346 0.000000
							}
						}
						JOINT mixamorig:RightEye
						{
							OFFSET -6.302100 18.118591 16.197100
							CHANNELS 3 Xrotation Yrotation Zrotation
							End Site
							{
								OFFSET 0.000000 30.592346 0.000000
							}
						}
						JOINT mixamorig:LeftEye
						{
							OFFSET 6.741500 18.382690 16.401899
							CHANNELS 3 Xrotation Yrotation Zrotation
							End Site
							{
								OFFSET 0.000000 30.592346 0.000000
							}
						}
					}
				}
				JOINT mixamorig:LeftShoulder
				{
					OFFSET 11.924900 18.230499 1.425400
					CHANNELS 3 Xrotation Yrotation Zrotation
					JOINT mixamorig:LeftArm
					{
						OFFSET 25.435989 -0.697632 -5.229300
						CHANNELS 3 Xrotation Yrotation Zrotation
						JOINT mixamorig:LeftForeArm
						{
							OFFSET 54.684776 0.000000 0.000000
							CHANNELS 3 Xrotation Yrotation Zrotation
							JOINT mixamorig:LeftHand
							{
								OFFSET 55.098175 0.000000 0.000000
								CHANNELS 3 Xrotation Yrotation Zrotation
								JOINT mixamorig:LeftHandMiddle1
								{
									OFFSET 23.369751 0.000000 0.000000
									CHANNELS 3 Xrotation Yrotation Zrotation
									JOINT mixamorig:LeftHandMiddle2
									{
										OFFSET 6.378677 0.000000 0.000000
										CHANNELS 3 Xrotation Yrotation Zrotation
										JOINT mixamorig:LeftHandMiddle3
										{
											OFFSET 6.148331 0.000000 0.000000
											CHANNELS 3 Xrotation Yrotation Zrotation
											JOINT mixamorig:LeftHandMiddle4
											{
												OFFSET 6.582504 0.000000 0.000000
												CHANNELS 3 Xrotation Yrotation Zrotation
												End Site
												{
													OFFSET -1.168900 6.395691 1.028606
												}
											}
										}
									}
								}
								JOINT mixamorig:LeftHandThumb1
								{
									OFFSET 7.235672 -3.848206 5.434273
									CHANNELS 3 Xrotation Yrotation Zrotation
									JOINT mixamorig:LeftHandThumb2
									{
										OFFSET 6.568451 -3.792297 3.792300
										CHANNELS 3 Xrotation Yrotation Zrotation
										JOINT mixamorig:LeftHandThumb3
										{
											OFFSET 6.063080 -3.500519 3.500518
											CHANNELS 3 Xrotation Yrotation Zrotation
											JOINT mixamorig:LeftHandThumb4
											{
												OFFSET 4.793182 -2.767334 2.767349
												CHANNELS 3 Xrotation Yrotation Zrotation
												End Site
												{
													OFFSET 0.101639 6.054260 1.275483
												}
											}
										}
									}
								}
								JOINT mixamorig:LeftHandIndex1
								{
									OFFSET 23.101074 -0.309540 4.992809
									CHANNELS 3 Xrotation Yrotation Zrotation
									JOINT mixamorig:LeftHandIndex2
									{
										OFFSET 6.226883 0.000000 0.000000
										CHANNELS 3 Xrotation Yrotation Zrotation
										JOINT mixamorig:LeftHandIndex3
										{
											OFFSET 6.094330 0.000000 0.000000
											CHANNELS 3 Xrotation Yrotation Zrotation
											JOINT mixamorig:LeftHandIndex4
											{
												OFFSET 5.482605 0.000000 0.000000
												CHANNELS 3 Xrotation Yrotation Zrotation
												End Site
												{
													OFFSET -1.427902 5.233032 0.797164
												}
											}
										}
									}
								}
								JOINT mixamorig:LeftHandRing1
								{
									OFFSET 22.299240 0.021149 -3.964172
									CHANNELS 3 Xrotation Yrotation Zrotation
									JOINT mixamorig:LeftHandRing2
									{
										OFFSET 6.321869 0.000000 0.000000
										CHANNELS 3 Xrotation Yrotation Zrotation
										JOINT mixamorig:LeftHandRing3
										{
											OFFSET 5.899796 0.000000 0.000000
											CHANNELS 3 Xrotation Yrotation Zrotation
											JOINT mixamorig:LeftHandRing4
											{
												OFFSET 6.517899 0.000000 0.000000
												CHANNELS 3 Xrotation Yrotation Zrotation
												End Site
												{
													OFFSET -1.637299 6.232208 0.980890
												}
											}
										}
									}
								}
								JOINT mixamorig:LeftHandPinky1
								{
									OFFSET 20.463791 -0.302338 -8.562233
									CHANNELS 3 Xrotation Yrotation Zrotation
									JOINT mixamorig:LeftHandPinky2
									{
										OFFSET 6.908646 0.000000 0.000000
										CHANNELS 3 Xrotation Yrotation Zrotation
										JOINT mixamorig:LeftHandPinky3
										{
											OFFSET 4.622849 0.000000 0.000000
											CHANNELS 3 Xrotation Yrotation Zrotation
											JOINT mixamorig:LeftHandPinky4
											{
												OFFSET 5.216080 0.000000 0.000000
												CHANNELS 3 Xrotation Yrotation Zrotation
												End Site
												{
													OFFSET -0.606308 5.116241 0.814926
												}
											}
										}
									}
								}
							}
						}
					}
				}
				JOINT mixamorig:RightShoulder
				{
					OFFSET -12.001300 18.284088 1.348900
					CHANNELS 3 Xrotation Yrotation Zrotation
					JOINT mixamorig:RightArm
					{
						OFFSET -25.308500 -0.751312 -5.164599
						CHANNELS 3 Xrotation Yrotation Zrotation
						JOINT mixamorig:RightForeArm
						{
							OFFSET -54.684429 0.000000 0.000000
							CHANNELS 3 Xrotation Yrotation Zrotation
							JOINT mixamorig:RightHand
							{
								OFFSET -55.150291 0.000000 0.000000
								CHANNELS 3 Xrotation Yrotation Zrotation
								JOINT mixamorig:RightHandMiddle1
								{
									OFFSET -23.317566 0.000000 0.000000
									CHANNELS 3 Xrotation Yrotation Zrotation
									JOINT mixamorig:RightHandMiddle2
									{
										OFFSET -6.378403 0.000000 0.000000
										CHANNELS 3 Xrotation Yrotation Zrotation
										JOINT mixamorig:RightHandMiddle3
										{
											OFFSET -6.148193 0.000000 0.000000
											CHANNELS 3 Xrotation Yrotation Zrotation
											JOINT mixamorig:RightHandMiddle4
											{
												OFFSET -6.583389 0.000000 0.000000
												CHANNELS 3 Xrotation Yrotation Zrotation
												End Site
												{
													OFFSET 1.171692 6.395905 1.029786
												}
											}
										}
									}
								}
								JOINT mixamorig:RightHandThumb1
								{
									OFFSET -7.190521 -3.860474 5.435846
									CHANNELS 3 Xrotation Yrotation Zrotation
									JOINT mixamorig:RightHandThumb2
									{
										OFFSET -6.567429 -3.791718 3.791708
										CHANNELS 3 Xrotation Yrotation Zrotation
										JOINT mixamorig:RightHandThumb3
										{
											OFFSET -6.062469 -3.500153 3.500166
											CHANNELS 3 Xrotation Yrotation Zrotation
											JOINT mixamorig:RightHandThumb4
											{
												OFFSET -4.792618 -2.767029 2.767022
												CHANNELS 3 Xrotation Yrotation Zrotation
												End Site
												{
													OFFSET -0.100327 6.053253 1.276754
												}
											}
										}
									}
								}
								JOINT mixamorig:RightHandIndex1
								{
									OFFSET -23.048981 -0.310791 4.992554
									CHANNELS 3 Xrotation Yrotation Zrotation
									JOINT mixamorig:RightHandIndex2
									{
										OFFSET -6.227539 0.000000 0.000000
										CHANNELS 3 Xrotation Yrotation Zrotation
										JOINT mixamorig:RightHandIndex3
										{
											OFFSET -6.095047 0.000000 0.000000
											CHANNELS 3 Xrotation Yrotation Zrotation
											JOINT mixamorig:RightHandIndex4
											{
												OFFSET -5.484772 0.000000 0.000000
												CHANNELS 3 Xrotation Yrotation Zrotation
												End Site
												{
													OFFSET 1.420593 5.237305 0.797056
												}
											}
										}
									}
								}
								JOINT mixamorig:RightHandRing1
								{
									OFFSET -22.246323 0.020569 -3.963762
									CHANNELS 3 Xrotation Yrotation Zrotation
									JOINT mixamorig:RightHandRing2
									{
										OFFSET -6.322128 0.000000 0.000000
										CHANNELS 3 Xrotation Yrotation Zrotation
										JOINT mixamorig:RightHandRing3
										{
											OFFSET -5.900024 0.000000 0.000000
											CHANNELS 3 Xrotation Yrotation Zrotation
											JOINT mixamorig:RightHandRing4
											{
												OFFSET -6.518356 0.000000 0.000000
												CHANNELS 3 Xrotation Yrotation Zrotation
												End Site
												{
													OFFSET 1.636398 6.232697 0.982186
												}
											}
										}
									}
								}
								JOINT mixamorig:RightHandPinky1
								{
									OFFSET -20.411011 -0.303314 -8.561701
									CHANNELS 3 Xrotation Yrotation Zrotation
									JOINT mixamorig:RightHandPinky2
									{
										OFFSET -6.907349 0.000000 0.000000
										CHANNELS 3 Xrotation Yrotation Zrotation
										JOINT mixamorig:RightHandPinky3
										{
											OFFSET -4.623840 0.000000 0.000000
											CHANNELS 3 Xrotation Yrotation Zrotation
											JOINT mixamorig:RightHandPinky4
											{
												OFFSET -5.218353 0.000000 0.000000
												CHANNELS 3 Xrotation Yrotation Zrotation
												End Site
												{
													OFFSET 0.602097 5.118835 0.816273
												}
											}
										}
									}
								}
							}
						}
					}
				}
			}
		}
	}
	JOINT mixamorig:LeftUpLeg
	{
		OFFSET 18.168400 -13.561905 -0.039000
		CHANNELS 3 Xrotation Yrotation Zrotation
		JOINT mixamorig:LeftLeg
		{
			OFFSET 0.577358 -80.825211 -3.695000
			CHANNELS 3 Xrotation Yrotation Zrotation
			JOINT mixamorig:LeftFoot
			{
				OFFSET -0.577356 -83.370262 -6.520700
				CHANNELS 3 Xrotation Yrotation Zrotation
				JOINT mixamorig:LeftToeBase
				{
					OFFSET 0.750401 -20.798306 25.135401
					CHANNELS 3 Xrotation Yrotation Zrotation
					JOINT mixamorig:LeftToe_End
					{
						OFFSET -0.000500 0.001200 19.917799
						CHANNELS 3 Xrotation Yrotation Zrotation
						End Site
						{
							OFFSET 0.000000 19.917805 0.000000
						}
					}
				}
			}
		}
	}
	JOINT mixamorig:RightUpLeg
	{
		OFFSET -18.162500 -13.585098 -0.041000
		CHANNELS 3 Xrotation Yrotation Zrotation
		JOINT mixamorig:RightLeg
		{
			OFFSET -0.595024 -80.945297 -3.631900
			CHANNELS 3 Xrotation Yrotation Zrotation
			JOINT mixamorig:RightFoot
			{
				OFFSET 0.595024 -83.218193 -6.561200
				CHANNELS 3 Xrotation Yrotation Zrotation
				JOINT mixamorig:RightToeBase
				{
					OFFSET -0.753601 -20.807106 25.115000
					CHANNELS 3 Xrotation Yrotation Zrotation
					JOINT mixamorig:RightToe_End
					{
						OFFSET 0.000299 0.001700 19.918200
						CHANNELS 3 Xrotation Yrotation Zrotation
						End Site
						{
							OFFSET 0.000000 19.918203 0.000000
						}
					}
				}
			}
		}
	}
}
MOTION
Frames: 4
Frame Time: 0.033333
3.445381 11.502777 -369.116119 -92.323209 6.370835 -5.993869 13.504420 -1.773538 -1.290788 26.971247 -4.046707 -2.443513 26.971235 -4.046705 -2.443511 32.492395 -0.327427 -6.273475 -23.232520 -4.291305 6.195958 -0.000002 -0.000002 -0.000001 -0.000002 -0.000002 -0.000001 -0.000002 -0.000002 -0.000001 13.001848 -8.830242 16.861837 6.443210 8.144269 -65.561654 -2.561365 -95.004004 -2.337282 25.470421 17.514436 -13.758783 -1.572874 10.239268 22.873964 -0.123364 -0.023720 -6.188479 0.000001 -0.000001 0.000005 -0.000001 0.000002 -0.000003 -13.419812 -19.311632 -2.987337 7.483008 -4.344213 6.935086 0.000007 0.000003 -0.000004 0.000001 -0.000002 -0.000000 7.082953 2.061742 25.868518 -0.052423 0.543239 -3.740610 -0.000008 0.000000 -0.000004 0.000001 0.000000 0.000001 -5.503577 14.670171 21.633709 0.129399 -1.662711 -11.624435 -0.000002 0.000007 0.000006 -0.000000 0.000000 -0.000000 -11.350238 25.932321 23.933157 -0.301220 -5.252073 -20.445973 0.000003 -0.000002 -0.000002 0.000001 -0.000002 0.000000 3.255068 -1.521834 -14.615133 31.979021 16.205220 37.845122 0.005200 62.088038 -0.160658 -23.226364 -7.778866 -29.807366 -2.695832 -7.210031 -26.029007 -0.139800 0.092403 9.384861 -0.000005 -0.000006 -0.000001 0.000000 -0.000001 0.000001 -11.569615 8.880480 1.561005 18.057692 7.897552 -9.890301 0.000004 -0.000004 -0.000001 0.000000 -0.000002 0.000001 12.201055 -0.335893 -34.795282 -0.046490 -0.548855 1.607700 0.000008 0.000004 -0.000006 0.000002 0.000003 -0.000007 -7.255556 -18.597560 -15.353131 0.085410 0.809168 3.489203 0.000001 -0.000001 -0.000001 -0.000002 0.000002 0.000000 -12.548983 -33.846917 -13.206254 0.580402 3.366282 3.047551 0.000002 -0.000006 0.000005 -0.000001 -0.000000 0.000001 -41.421477 -7.517590 17.494944 32.884759 -0.576682 -1.237776 -14.337901 27.400289 -10.634313 2.474317 -0.993886 0.700320 0.000000 -0.000000 0.000000 -50.669444 -19.158378 -9.445108 52.892452 -0.283273 1.833621 4.004265 21.173090 13.432421 0.093704 2.011629 -0.683017 0.000000 0.000002 0.000000 
3.832260 12.812347 -372.466431 -99.217910 4.312025 -4.273067 13.138082 -1.217960 -1.748532 26.228975 -3.053841 -3.542461 26.228995 -3.053838 -3.542458 34.872286 -0.263120 -5.015268 -19.455174 -4.829838 7.459098 -0.000001 -0.000001 -0.000000 -0.000001 -0.000001 -0.000000 -0.000001 -0.000001 -0.000000 13.092273 -8.981155 17.675572 -0.079894 2.317756 -62.469648 5.204867 -85.754193 5.529594 14.790338 18.385399 -10.648191 -1.472953 10.039655 22.433464 -0.125056 -0.037996 -6.368949 0.000003 0.000001 0.000004 0.000002 0.000001 0.000001 -13.139627 -18.881599 -2.996546 7.236664 -4.264855 7.010498 0.000003 0.000001 -0.000001 -0.000003 -0.000002 0.000001 7.058377 1.862689 25.551745 -0.054893 0.541993 -3.934965 -0.000005 0.000000 -0.000008 0.000001 -0.000000 -0.000001 -5.458051 14.599164 21.379284 0.125027 -1.664592 -11.681813 -0.000002 0.000009 0.000005 -0.000003 -0.000000 -0.000001 -11.120904 25.882102 23.585811 -0.296266 -5.238205 -20.338586 0.000002 -0.000001 -0.000002 0.000000 -0.000001 0.000001 3.843903 0.568723 -14.368491 30.593056 12.072334 37.397915 0.091609 58.852489 -0.266336 -22.683104 -5.441768 -21.297037 -2.775886 -7.356359 -26.143002 -0.139393 0.082080 9.219138 -0.000001 -0.000003 -0.000003 -0.000003 -0.000002 -0.000001 -10.961373 7.654924 1.385177 17.558547 7.777614 -9.777333 -0.000002 0.000001 -0.000001 -0.000002 -0.000002 -0.000002 12.181858 -0.248872 -35.010184 -0.044674 -0.555187 1.848199 0.000002 0.000007 0.000001 0.000002 -0.000001 -0.000001 -7.638085 -19.424331 -15.847224 0.091993 0.763602 3.081936 -0.000004 -0.000001 -0.000001 0.000003 -0.000000 0.000001 -13.378654 -33.998653 -15.036101 0.588711 3.364744 3.036659 0.000003 -0.000004 0.000002 0.000003 -0.000001 0.000000 -39.245000 -10.710830 16.102475 51.294926 -1.397174 -1.879290 -11.353039 17.694180 -17.827974 1.401142 0.673569 -0.203188 -0.000000 0.000003 -0.000001 -46.062598 -21.371949 -12.449902 50.446438 -0.752087 1.736559 -0.506824 13.519957 9.612829 0.603550 1.254658 -0.302931 -0.000000 0.000000 0.000002 
4.160776 14.836945 -374.614441 -104.759946 1.124038 -3.172438 12.225491 -0.431831 -1.929376 24.413343 -1.632399 -4.544953 24.413338 -1.632396 -4.544949 36.106347 0.509745 -3.465517 -16.608175 -4.403296 8.130660 -0.000002 0.000000 -0.000000 -0.000002 0.000000 -0.000000 -0.000002 0.000000 -0.000000 12.810417 -7.320132 19.758419 -3.463442 -2.012148 -63.978095 2.240255 -75.057311 2.663101 14.350284 18.101934 -16.667017 -1.390396 9.845207 22.172360 -0.127569 -0.058705 -6.629622 -0.000003 -0.000001 0.000007 -0.000002 -0.000001 -0.000001 -12.849582 -18.178893 -2.944722 6.982942 -4.178600 7.069112 0.000009 0.000000 -0.000005 0.000002 -0.000001 0.000003 7.016191 1.712044 25.300834 -0.058801 0.539547 -4.191714 -0.000010 0.000001 -0.000002 -0.000002 -0.000002 0.000002 -5.425857 14.525181 21.225557 0.119864 -1.670414 -11.784720 -0.000006 0.000009 0.000007 0.000001 -0.000000 0.000001 -10.884664 25.840375 23.191614 -0.287653 -5.220133 -20.197709 -0.000003 -0.000002 -0.000003 -0.000001 -0.000000 -0.000001 4.355428 2.373827 -14.290642 28.589171 5.373453 39.830361 0.189854 56.280827 -0.443082 -14.272186 -1.562253 -16.743826 -2.798191 -7.397303 -26.092521 -0.139205 0.076546 9.133225 -0.000007 -0.000002 0.000001 -0.000002 0.000001 -0.000004 -10.243834 6.537857 1.374352 16.901295 7.613990 -9.659656 0.000005 -0.000002 -0.000003 0.000000 -0.000003 0.000000 12.017852 -0.050292 -34.465421 -0.042821 -0.560118 2.090852 0.000003 0.000007 0.000001 -0.000000 0.000003 -0.000002 -7.825932 -19.803654 -16.140729 0.094407 0.756399 3.016076 -0.000006 -0.000001 0.000002 0.000003 0.000000 -0.000001 -13.908987 -33.855346 -16.435561 0.582652 3.415025 3.314453 0.000004 -0.000005 0.000003 0.000002 -0.000000 0.000000 -38.419244 -12.205713 16.209335 70.346618 -2.449576 -2.472512 -9.792937 7.553496 -18.089879 1.260144 3.527059 -1.588882 -0.000000 0.000002 -0.000001 -43.646210 -20.070036 -14.898077 51.167041 -1.377354 1.722974 -4.686074 10.204852 8.454212 1.166076 0.538818 0.073144 0.000001 0.000001 0.000000 
4.251958 16.905243 -376.175903 -108.510894 -2.415253 -2.691102 11.135098 0.267344 -1.950064 22.270938 -0.193590 -5.288712 22.270933 -0.193593 -5.288713 35.323771 1.540321 -2.810381 -16.139908 -3.452358 8.549544 0.000003 -0.000000 -0.000000 0.000003 -0.000000 -0.000000 0.000003 -0.000000 -0.000000 12.258090 -5.408885 20.599664 -5.212426 -2.223820 -66.028798 2.026624 -65.775268 2.457304 27.152954 14.404083 -28.616751 -1.322341 9.683493 21.873196 -0.130895 -0.080867 -6.908646 0.000000 0.000000 0.000006 -0.000001 -0.000002 -0.000001 -12.630691 -17.411843 -2.875793 6.722143 -4.085622 7.111536 0.000005 0.000000 -0.000001 -0.000002 -0.000000 -0.000000 6.973651 1.521703 24.951455 -0.064587 0.535248 -4.466564 -0.000008 0.000000 -0.000006 -0.000000 -0.000000 0.000001 -5.363162 14.444009 20.946421 0.114557 -1.678096 -11.910067 -0.000001 0.000008 0.000006 -0.000002 -0.000001 0.000001 -10.608150 25.843597 22.627314 -0.280167 -5.203042 -20.075953 -0.000003 -0.000003 -0.000001 0.000000 -0.000002 0.000000 4.794276 3.908226 -14.359467 27.801404 0.857632 42.892406 0.337442 54.793004 -0.678023 -11.017539 -4.331101 -17.711328 -2.760998 -7.330452 -25.891444 -0.139212 0.075356 9.119409 0.000003 -0.000003 -0.000000 -0.000002 -0.000001 0.000000 -9.424492 5.599715 1.497004 16.063654 7.331400 -9.558120 0.000004 0.000005 -0.000001 0.000003 -0.000002 -0.000004 11.850920 0.256159 -33.709121 -0.040953 -0.563685 2.335522 0.000007 0.000004 0.000004 0.000004 -0.000002 0.000002 -7.756353 -19.504309 -16.333301 0.094437 0.773083 3.162716 0.000002 -0.000000 -0.000001 -0.000001 -0.000000 0.000002 -14.016155 -33.648702 -17.039114 0.574352 3.478748 3.670194 0.000003 -0.000005 0.000003 0.000001 -0.000000 -0.000000 -38.030999 -12.275634 17.857620 86.541782 -3.469869 -2.884363 -9.920420 3.185403 -14.002536 2.431386 5.766588 -2.685036 -0.000000 -0.000001 0.000000 -43.342755 -16.885213 -16.936147 53.772539 -2.065213 1.757718 -7.951574 9.129996 8.608567 1.643379 -0.037508 0.368966 0.000000 0.000000 -0.000001 
